<svg xmlns="http://www.w3.org/2000/svg" width="1080" height="1080" viewBox="0 0 1080 1080"><defs>
 <filter id="sh" x="-30%" y="-30%" width="160%" height="180%"><feGaussianBlur stdDeviation="26"/></filter>
 <filter id="glow" x="-60%" y="-60%" width="220%" height="220%"><feGaussianBlur stdDeviation="60"/></filter>
 <filter id="soft" x="-30%" y="-30%" width="160%" height="160%"><feGaussianBlur stdDeviation="6"/></filter>
 <filter id="grain"><feTurbulence type="fractalNoise" baseFrequency=".8" numOctaves="2" stitchTiles="stitch"/><feColorMatrix type="saturate" values="0"/></filter>
 <linearGradient id="vb" x1="0" y1="0" x2="1" y2="1"><stop offset="0" stop-color="#7C5CFF"/><stop offset="1" stop-color="#3D7BFF"/></linearGradient>
 <linearGradient id="arc" x1="0" y1="0" x2="1" y2="1"><stop offset="0" stop-color="#C77DFF" stop-opacity=".9"/><stop offset=".5" stop-color="#7C5CFF" stop-opacity=".55"/><stop offset="1" stop-color="#3D7BFF" stop-opacity=".15"/></linearGradient>
 <linearGradient id="gloss" x1="0" y1="0" x2="1" y2="1"><stop offset="0" stop-color="#fff" stop-opacity=".12"/><stop offset=".5" stop-color="#fff" stop-opacity="0"/></linearGradient>
 <radialGradient id="vig" cx=".5" cy=".5" r=".8"><stop offset=".5" stop-color="#000" stop-opacity="0"/><stop offset="1" stop-color="#000" stop-opacity=".6"/></radialGradient>
</defs><rect x="0" y="0" width="1080" height="1080" rx="0" fill="#08080F" opacity="1" /><circle cx="700" cy="500" r="300" fill="#C77DFF" opacity="0.25" filter="url(#glow)"/><g transform="rotate(20 920 180)" opacity="0.7"><ellipse cx="920" cy="180" rx="300" ry="240" fill="none" stroke="url(#arc)" stroke-width="66.0" filter="url(#soft)"/><ellipse cx="920" cy="180" rx="300" ry="240" fill="none" stroke="#fff" stroke-opacity=".25" stroke-width="2"/></g><rect width="1080" height="1080" filter="url(#grain)" opacity="0.05"/><g transform="rotate(-8 340.0 576.6153846153846)"><ellipse cx="340.0" cy="931.2307692307693" rx="165.0" ry="26" fill="#000" opacity=".6" filter="url(#sh)"/><rect x="190" y="240" width="300" height="673.2307692307693" rx="48.0" fill="#0b0b12" opacity="1" stroke="#23233A" stroke-width="2"/><clipPath id="p190240"><rect x="202" y="252" width="276" height="649.2307692307693" rx="36.0"/></clipPath><g clip-path="url(#p190240)"><g transform="translate(202 252) scale(0.7076923076923077)"><rect x="0" y="0" width="390" height="844" rx="0" fill="#08080F" opacity="1" /><circle cx="200" cy="300" r="220" fill="#7C5CFF" opacity="0.45" filter="url(#glow)"/><circle cx="34" cy="60" r="9" fill="url(#vb)"/><text x="52" y="67" font-family="Archivo" font-size="20" font-weight="700" fill="#F2F2F7" text-anchor="start" letter-spacing="0" opacity="1">Növbə</text><text x="30" y="150" font-family="Archivo" font-size="34" font-weight="600" fill="#F2F2F7" text-anchor="start" letter-spacing="0" opacity="1">Sabah 14:30</text><text x="30" y="186" font-family="Inter" font-size="16" font-weight="400" fill="#8B8B9E" text-anchor="start" letter-spacing="0" opacity="1">Saç kəsimi · Ləman</text><rect x="30" y="220" width="330" height="120" rx="16" fill="#FFFFFF" opacity="0.05" stroke="#FFFFFF" stroke-opacity=".10"/><text x="50" y="256" font-family="Inter" font-size="12" font-weight="500" fill="#8B8B9E" text-anchor="start" letter-spacing="0" opacity="1">Növbəti müştəri</text><text x="50" y="294" font-family="Archivo" font-size="24" font-weight="700" fill="#F2F2F7" text-anchor="start" letter-spacing="0" opacity="1">Nigar Ə.</text><text x="50" y="320" font-family="Inter" font-size="14" font-weight="400" fill="#8B8B9E" text-anchor="start" letter-spacing="0" opacity="1">15:30 · Boyama · 90 dəq</text><rect x="30" y="370" width="330" height="72" rx="14" fill="#FFFFFF" opacity="0.05" stroke="#FFFFFF" stroke-opacity=".10"/><rect x="30" y="384" width="4" height="44" rx="2" fill="#3D7BFF" opacity="1" /><text x="52" y="400" font-family="Inter" font-size="13" font-weight="600" fill="#8B8B9E" text-anchor="start" letter-spacing="0" opacity="1">16:30</text><text x="52" y="424" font-family="Inter" font-size="18" font-weight="600" fill="#F2F2F7" text-anchor="start" letter-spacing="0" opacity="1">Aysel M.</text><rect x="30" y="458" width="330" height="72" rx="14" fill="#FFFFFF" opacity="0.05" stroke="#FFFFFF" stroke-opacity=".10"/><rect x="30" y="472" width="4" height="44" rx="2" fill="#C77DFF" opacity="1" /><text x="52" y="488" font-family="Inter" font-size="13" font-weight="600" fill="#8B8B9E" text-anchor="start" letter-spacing="0" opacity="1">17:00</text><text x="52" y="512" font-family="Inter" font-size="18" font-weight="600" fill="#F2F2F7" text-anchor="start" letter-spacing="0" opacity="1">Günel R.</text><rect x="30" y="546" width="330" height="72" rx="14" fill="#FFFFFF" opacity="0.05" stroke="#FFFFFF" stroke-opacity=".10"/><rect x="30" y="560" width="4" height="44" rx="2" fill="#7C5CFF" opacity="1" /><text x="52" y="576" font-family="Inter" font-size="13" font-weight="600" fill="#8B8B9E" text-anchor="start" letter-spacing="0" opacity="1">18:00</text><text x="52" y="600" font-family="Inter" font-size="18" font-weight="600" fill="#F2F2F7" text-anchor="start" letter-spacing="0" opacity="1">Sevinc T.</text><rect x="30" y="680" width="330" height="56" rx="28" fill="url(#vb)" opacity="1" /><text x="195" y="715" font-family="Inter" font-size="16" font-weight="700" fill="#F2F2F7" text-anchor="middle" letter-spacing="0" opacity="1">+ Yeni rezerv</text></g></g><rect x="286.0" y="262" width="108.0" height="22" rx="11" fill="#0b0b12" opacity="1" /><rect x="202" y="252" width="276" height="649.2307692307693" rx="36.0" fill="url(#gloss)" opacity="1" /></g><g transform="rotate(6 710.0 636.6153846153846)"><ellipse cx="710.0" cy="991.2307692307693" rx="165.0" ry="26" fill="#000" opacity=".6" filter="url(#sh)"/><rect x="560" y="300" width="300" height="673.2307692307693" rx="48.0" fill="#0b0b12" opacity="1" stroke="#23233A" stroke-width="2"/><clipPath id="p560300"><rect x="572" y="312" width="276" height="649.2307692307693" rx="36.0"/></clipPath><g clip-path="url(#p560300)"><g transform="translate(572 312) scale(0.7076923076923077)"><rect x="0" y="0" width="390" height="844" rx="0" fill="#08080F" opacity="1" /><circle cx="200" cy="300" r="220" fill="#7C5CFF" opacity="0.45" filter="url(#glow)"/><circle cx="34" cy="60" r="9" fill="url(#vb)"/><text x="52" y="67" font-family="Archivo" font-size="20" font-weight="700" fill="#F2F2F7" text-anchor="start" letter-spacing="0" opacity="1">Növbə</text><text x="30" y="150" font-family="Archivo" font-size="34" font-weight="600" fill="#F2F2F7" text-anchor="start" letter-spacing="0" opacity="1">Sabah 14:30</text><text x="30" y="186" font-family="Inter" font-size="16" font-weight="400" fill="#8B8B9E" text-anchor="start" letter-spacing="0" opacity="1">Saç kəsimi · Ləman</text><rect x="30" y="220" width="330" height="120" rx="16" fill="#FFFFFF" opacity="0.05" stroke="#FFFFFF" stroke-opacity=".10"/><text x="50" y="256" font-family="Inter" font-size="12" font-weight="500" fill="#8B8B9E" text-anchor="start" letter-spacing="0" opacity="1">Növbəti müştəri</text><text x="50" y="294" font-family="Archivo" font-size="24" font-weight="700" fill="#F2F2F7" text-anchor="start" letter-spacing="0" opacity="1">Nigar Ə.</text><text x="50" y="320" font-family="Inter" font-size="14" font-weight="400" fill="#8B8B9E" text-anchor="start" letter-spacing="0" opacity="1">15:30 · Boyama · 90 dəq</text><rect x="30" y="370" width="330" height="72" rx="14" fill="#FFFFFF" opacity="0.05" stroke="#FFFFFF" stroke-opacity=".10"/><rect x="30" y="384" width="4" height="44" rx="2" fill="#3D7BFF" opacity="1" /><text x="52" y="400" font-family="Inter" font-size="13" font-weight="600" fill="#8B8B9E" text-anchor="start" letter-spacing="0" opacity="1">16:30</text><text x="52" y="424" font-family="Inter" font-size="18" font-weight="600" fill="#F2F2F7" text-anchor="start" letter-spacing="0" opacity="1">Aysel M.</text><rect x="30" y="458" width="330" height="72" rx="14" fill="#FFFFFF" opacity="0.05" stroke="#FFFFFF" stroke-opacity=".10"/><rect x="30" y="472" width="4" height="44" rx="2" fill="#C77DFF" opacity="1" /><text x="52" y="488" font-family="Inter" font-size="13" font-weight="600" fill="#8B8B9E" text-anchor="start" letter-spacing="0" opacity="1">17:00</text><text x="52" y="512" font-family="Inter" font-size="18" font-weight="600" fill="#F2F2F7" text-anchor="start" letter-spacing="0" opacity="1">Günel R.</text><rect x="30" y="546" width="330" height="72" rx="14" fill="#FFFFFF" opacity="0.05" stroke="#FFFFFF" stroke-opacity=".10"/><rect x="30" y="560" width="4" height="44" rx="2" fill="#7C5CFF" opacity="1" /><text x="52" y="576" font-family="Inter" font-size="13" font-weight="600" fill="#8B8B9E" text-anchor="start" letter-spacing="0" opacity="1">18:00</text><text x="52" y="600" font-family="Inter" font-size="18" font-weight="600" fill="#F2F2F7" text-anchor="start" letter-spacing="0" opacity="1">Sevinc T.</text><rect x="30" y="680" width="330" height="56" rx="28" fill="url(#vb)" opacity="1" /><text x="195" y="715" font-family="Inter" font-size="16" font-weight="700" fill="#F2F2F7" text-anchor="middle" letter-spacing="0" opacity="1">+ Yeni rezerv</text></g></g><rect x="656.0" y="322" width="108.0" height="22" rx="11" fill="#0b0b12" opacity="1" /><rect x="572" y="312" width="276" height="649.2307692307693" rx="36.0" fill="url(#gloss)" opacity="1" /></g><text x="80" y="108" font-family="Inter" font-size="16" font-weight="600" fill="#C77DFF" text-anchor="start" letter-spacing="5" opacity="1">MOBİL</text><text x="1000" y="108" font-family="Inter" font-size="16" font-weight="500" fill="#F2F2F7" text-anchor="end" letter-spacing="2" opacity="0.6">@hastudio.az   ·   5 / 7</text><text x="80" y="996" font-family="Archivo" font-size="34" font-weight="600" fill="#F2F2F7" text-anchor="start" letter-spacing="0" opacity="1">Usta telefondan idarə edir.</text></svg>