<svg xmlns="http://www.w3.org/2000/svg" width="1080" height="1080" viewBox="0 0 1080 1080"><rect width="1080" height="1080" fill="#0b0c0e"/><circle cx="1020" cy="-40" r="300" fill="#c8f24e" opacity="0.07"/><text x="84" y="1004" font-family="Inter" font-size="20" font-weight="500" fill="#9b9da2" text-anchor="start" letter-spacing="0">hastudio-az.vercel.app</text><text x="996" y="1004" font-family="Inter" font-size="20" font-weight="700" fill="#c8f24e" text-anchor="end" letter-spacing="0">4/5</text><text x="84" y="114" font-family="Inter" font-size="21" font-weight="700" fill="#c8f24e" text-anchor="start" letter-spacing="4">03 · MAĞAZA</text><text x="84" y="192" font-family="Inter" font-size="56" font-weight="800" fill="#edecea" text-anchor="start" letter-spacing="0">Qiymət</text><text x="84" y="260" font-family="Inter" font-size="56" font-weight="800" fill="#c8f24e" text-anchor="start" letter-spacing="0">gizlənmir.</text><rect x="84" y="330" width="300" height="560" rx="34" fill="#131519" stroke="#262a31" stroke-width="2"/><rect x="200.0" y="346" width="68" height="7" rx="3.5" fill="#262a31"/><rect x="104" y="374" width="124" height="168" rx="14" fill="#1a1d22"/><rect x="118" y="388" width="96" height="86" rx="10" fill="#262a31"/><rect x="118" y="486" width="72" height="9" rx="4.5" fill="#262a31"/><text x="118" y="524" font-family="Inter" font-size="21" font-weight="800" fill="#c8f24e" text-anchor="start" letter-spacing="0">18 ₼</text><rect x="240" y="374" width="124" height="168" rx="14" fill="#1a1d22"/><rect x="254" y="388" width="96" height="86" rx="10" fill="#262a31"/><rect x="254" y="486" width="72" height="9" rx="4.5" fill="#262a31"/><text x="254" y="524" font-family="Inter" font-size="21" font-weight="800" fill="#c8f24e" text-anchor="start" letter-spacing="0">27 ₼</text><rect x="104" y="560" width="124" height="168" rx="14" fill="#1a1d22"/><rect x="118" y="574" width="96" height="86" rx="10" fill="#262a31"/><rect x="118" y="672" width="72" height="9" rx="4.5" fill="#262a31"/><text x="118" y="710" font-family="Inter" font-size="21" font-weight="800" fill="#c8f24e" text-anchor="start" letter-spacing="0">36 ₼</text><rect x="240" y="560" width="124" height="168" rx="14" fill="#1a1d22"/><rect x="254" y="574" width="96" height="86" rx="10" fill="#262a31"/><rect x="254" y="672" width="72" height="9" rx="4.5" fill="#262a31"/><text x="254" y="710" font-family="Inter" font-size="21" font-weight="800" fill="#c8f24e" text-anchor="start" letter-spacing="0">45 ₼</text><rect x="104" y="774" width="260" height="60" rx="30" fill="#c8f24e"/><text x="234" y="812" font-family="Inter" font-size="21" font-weight="800" fill="#0b0c0e" text-anchor="middle" letter-spacing="0">SƏBƏT · 2 məhsul</text><text x="456" y="372" font-family="Inter" font-size="26" font-weight="400" fill="#9b9da2" text-anchor="start" letter-spacing="0">Mağazada gözü şəkil və qiymət</text><text x="456" y="412" font-family="Inter" font-size="26" font-weight="400" fill="#9b9da2" text-anchor="start" letter-spacing="0">aparır. Qiymət məhsulun altında,</text><text x="456" y="452" font-family="Inter" font-size="26" font-weight="400" fill="#9b9da2" text-anchor="start" letter-spacing="0">düymədən əvvəl durur.</text><text x="456" y="532" font-family="Inter" font-size="26" font-weight="400" fill="#9b9da2" text-anchor="start" letter-spacing="0">Səbət həmişə ekranda qalır —</text><text x="456" y="572" font-family="Inter" font-size="26" font-weight="400" fill="#9b9da2" text-anchor="start" letter-spacing="0">müştəri yolunu itirməməlidir.</text><rect x="456" y="656" width="6" height="106" fill="#c8f24e" rx="3"/><text x="482" y="680" font-family="Inter" font-size="17" font-weight="700" fill="#c8f24e" text-anchor="start" letter-spacing="3">PRİNSİP</text><text x="482" y="718" font-family="Inter" font-size="25" font-weight="600" fill="#edecea" text-anchor="start" letter-spacing="0">Sifariş üç toxunuşdan</text><text x="482" y="754" font-family="Inter" font-size="25" font-weight="600" fill="#edecea" text-anchor="start" letter-spacing="0">uzun olmasın.</text></svg>