<svg xmlns="http://www.w3.org/2000/svg" width="1080" height="1080" viewBox="0 0 1080 1080"><rect width="1080" height="1080" fill="#0E0E12"/><text x="84" y="114" font-family="Space Grotesk" font-size="21" font-weight="700" fill="#EBFF38" text-anchor="start" letter-spacing="5" opacity="1">03 · MAĞAZA</text><text x="84" y="212" font-family="Space Grotesk" font-size="62" font-weight="700" fill="#F2F2F0" text-anchor="start" letter-spacing="0" opacity="1">Qiymət</text><text x="84" y="288" font-family="Space Grotesk" font-size="62" font-weight="700" fill="#EBFF38" text-anchor="start" letter-spacing="0" opacity="1">gizlənmir.</text><rect x="84" y="352" width="196" height="200" rx="16" fill="#1A1A21"/><rect x="102" y="370" width="160" height="102" rx="10" fill="#26262F"/><rect x="102" y="490" width="96" height="8" fill="#3A3A45" opacity="1"/><text x="102" y="530" font-family="Space Grotesk" font-size="24" font-weight="700" fill="#EBFF38" text-anchor="start" letter-spacing="0" opacity="1">18 ₼</text><rect x="296" y="352" width="196" height="200" rx="16" fill="#1A1A21"/><rect x="314" y="370" width="160" height="102" rx="10" fill="#26262F"/><rect x="314" y="490" width="96" height="8" fill="#3A3A45" opacity="1"/><text x="314" y="530" font-family="Space Grotesk" font-size="24" font-weight="700" fill="#EBFF38" text-anchor="start" letter-spacing="0" opacity="1">27 ₼</text><g transform="rotate(-9 448 386)"><rect x="396" y="368" width="80" height="34" rx="17" fill="#FF3D78"/><text x="436" y="391" font-family="Space Grotesk" font-size="17" font-weight="700" fill="#FFFFFF" text-anchor="middle" letter-spacing="1" opacity="1">YENİ</text></g><rect x="84" y="568" width="196" height="200" rx="16" fill="#1A1A21"/><rect x="102" y="586" width="160" height="102" rx="10" fill="#26262F"/><rect x="102" y="706" width="96" height="8" fill="#3A3A45" opacity="1"/><text x="102" y="746" font-family="Space Grotesk" font-size="24" font-weight="700" fill="#EBFF38" text-anchor="start" letter-spacing="0" opacity="1">36 ₼</text><rect x="296" y="568" width="196" height="200" rx="16" fill="#1A1A21"/><rect x="314" y="586" width="160" height="102" rx="10" fill="#26262F"/><rect x="314" y="706" width="96" height="8" fill="#3A3A45" opacity="1"/><text x="314" y="746" font-family="Space Grotesk" font-size="24" font-weight="700" fill="#EBFF38" text-anchor="start" letter-spacing="0" opacity="1">45 ₼</text><rect x="84" y="798" width="408" height="64" rx="32" fill="#EBFF38"/><text x="288" y="839" font-family="Space Grotesk" font-size="22" font-weight="700" fill="#0E0E12" text-anchor="middle" letter-spacing="0" opacity="1">SƏBƏT · 2 məhsul · 45 ₼</text><text x="568" y="404" font-family="Manrope" font-size="26" font-weight="400" fill="#8A8A93" text-anchor="start" letter-spacing="0" opacity="1">Mağazada gözü şəkil və qiymət</text><text x="568" y="444" font-family="Manrope" font-size="26" font-weight="400" fill="#8A8A93" text-anchor="start" letter-spacing="0" opacity="1">aparır. Qiymət məhsulun altında,</text><text x="568" y="484" font-family="Manrope" font-size="26" font-weight="400" fill="#8A8A93" text-anchor="start" letter-spacing="0" opacity="1">düymədən əvvəl durur.</text><text x="568" y="564" font-family="Manrope" font-size="26" font-weight="400" fill="#8A8A93" text-anchor="start" letter-spacing="0" opacity="1">Səbət həmişə ekranda qalır.</text><rect x="568" y="644" width="5" height="96" fill="#FF3D78" opacity="1"/><text x="594" y="672" font-family="Space Grotesk" font-size="17" font-weight="700" fill="#FF3D78" text-anchor="start" letter-spacing="3" opacity="1">PRİNSİP</text><text x="594" y="710" font-family="Manrope" font-size="25" font-weight="700" fill="#F2F2F0" text-anchor="start" letter-spacing="0" opacity="1">Sifariş üç toxunuşdan</text><text x="594" y="746" font-family="Manrope" font-size="25" font-weight="700" fill="#F2F2F0" text-anchor="start" letter-spacing="0" opacity="1">uzun olmasın.</text><text x="84" y="1004" font-family="Space Grotesk" font-size="20" font-weight="500" fill="#F2F2F0" text-anchor="start" letter-spacing="0" opacity="0.6">hastudio-az.vercel.app</text><text x="996" y="1004" font-family="Space Grotesk" font-size="20" font-weight="700" fill="#EBFF38" text-anchor="end" letter-spacing="0" opacity="1">4/5</text></svg>