<svg xmlns="http://www.w3.org/2000/svg" width="1080" height="1080" viewBox="0 0 1080 1080">
<defs>
  <filter id="shadow" x="-30%" y="-30%" width="160%" height="180%">
    <feGaussianBlur stdDeviation="28"/>
  </filter>
  <filter id="soft" x="-20%" y="-20%" width="140%" height="140%">
    <feGaussianBlur stdDeviation="10"/>
  </filter>
  <filter id="grain">
    <feTurbulence type="fractalNoise" baseFrequency="0.9" numOctaves="2" stitchTiles="stitch"/>
    <feColorMatrix type="saturate" values="0"/>
  </filter>
  <linearGradient id="gloss" x1="0" y1="0" x2="1" y2="1">
    <stop offset="0" stop-color="#fff" stop-opacity=".18"/>
    <stop offset=".45" stop-color="#fff" stop-opacity="0"/>
  </linearGradient>
</defs><defs><radialGradient id="bg1" cx=".5" cy=".1" r="1"><stop offset="0" stop-color="#15171c"/><stop offset="1" stop-color="#0b0c0e"/></radialGradient></defs><rect x="0" y="0" width="1080" height="1080" rx="0" fill="url(#bg1)" opacity="1" /><circle cx="540" cy="120" r="360" fill="#c8f24e" opacity=".12" filter="url(#shadow)"/><rect width="1080" height="1080" filter="url(#grain)" opacity="0.06"/><text x="80" y="112" font-family="Inter" font-size="22" font-weight="700" fill="#c8f24e" text-anchor="start" letter-spacing="6" opacity="1">UX / UI  ·  HA STUDIO</text><text x="80" y="250" font-family="Inter" font-size="88" font-weight="800" fill="#edecea" text-anchor="start" letter-spacing="0" opacity="1">Hər biznesin</text><text x="80" y="346" font-family="Inter" font-size="88" font-weight="800" fill="#c8f24e" text-anchor="start" letter-spacing="0" opacity="1">öz dili var.</text><g transform="rotate(-6 350.0 631.2)"><ellipse cx="350.0" cy="812.4" rx="260.0" ry="26" fill="#000" opacity=".55" filter="url(#shadow)"/><rect x="90" y="470" width="520" height="322.4" rx="18" fill="#E4EFEE" opacity="1" /><circle cx="112" cy="490" r="6" fill="#FF5F57"/><circle cx="132" cy="490" r="6" fill="#FEBC2E"/><circle cx="152" cy="490" r="6" fill="#28C840"/><clipPath id="w90"><rect x="90" y="510" width="520" height="282.4" rx="0"/></clipPath><g clip-path="url(#w90)"><g transform="translate(90 510) scale(0.43333333333333335)"><rect x="0" y="0" width="1200" height="750" rx="0" fill="#FFFFFF" opacity="1" /><text x="60" y="58" font-family="IBM Plex Sans" font-size="30" font-weight="800" fill="#0E4F57" text-anchor="start" letter-spacing="0" opacity="1">Dent+</text><text x="430" y="56" font-family="IBM Plex Sans" font-size="19" font-weight="500" fill="#0E4F57" text-anchor="start" letter-spacing="0" opacity="0.75">Xidmətlər</text><text x="560" y="56" font-family="IBM Plex Sans" font-size="19" font-weight="500" fill="#0E4F57" text-anchor="start" letter-spacing="0" opacity="0.75">Həkimlər</text><text x="690" y="56" font-family="IBM Plex Sans" font-size="19" font-weight="500" fill="#0E4F57" text-anchor="start" letter-spacing="0" opacity="0.75">Qiymətlər</text><text x="820" y="56" font-family="IBM Plex Sans" font-size="19" font-weight="500" fill="#0E4F57" text-anchor="start" letter-spacing="0" opacity="0.75">Əlaqə</text><rect x="1000" y="30" width="140" height="46" rx="23" fill="#1FA9A0" opacity="1" /><text x="1070" y="60" font-family="IBM Plex Sans" font-size="17" font-weight="700" fill="#fff" text-anchor="middle" letter-spacing="0" opacity="1">Qeydiyyat</text><rect x="60" y="130" width="200" height="36" rx="18" fill="#EAF6F5" opacity="1" /><text x="160" y="155" font-family="IBM Plex Sans" font-size="15" font-weight="600" fill="#1FA9A0" text-anchor="middle" letter-spacing="0" opacity="1">Bakı · Nərimanov</text><text x="60" y="250" font-family="IBM Plex Sans" font-size="72" font-weight="700" fill="#0E4F57" text-anchor="start" letter-spacing="0" opacity="1">Gülüşünüzə</text><text x="60" y="330" font-family="IBM Plex Sans" font-size="72" font-weight="700" fill="#1FA9A0" text-anchor="start" letter-spacing="0" opacity="1">peşəkar qayğı.</text><text x="60" y="386" font-family="IBM Plex Sans" font-size="20" font-weight="400" fill="#0E4F57" text-anchor="start" letter-spacing="0" opacity="0.7">Ağrısız müalicə, şəffaf qiymət və 15 illik təcrübə.</text><rect x="60" y="420" width="186" height="44" rx="22" fill="#EAF6F5" opacity="1" /><text x="153" y="449" font-family="IBM Plex Sans" font-size="15" font-weight="600" fill="#0E4F57" text-anchor="middle" letter-spacing="0" opacity="1">4.9 ★  Google</text><rect x="260" y="420" width="186" height="44" rx="22" fill="#EAF6F5" opacity="1" /><text x="353" y="449" font-family="IBM Plex Sans" font-size="15" font-weight="600" fill="#0E4F57" text-anchor="middle" letter-spacing="0" opacity="1">2 400+ pasiyent</text><rect x="460" y="420" width="186" height="44" rx="22" fill="#EAF6F5" opacity="1" /><text x="553" y="449" font-family="IBM Plex Sans" font-size="15" font-weight="600" fill="#0E4F57" text-anchor="middle" letter-spacing="0" opacity="1">Rəsmi lisenziya</text><rect x="700" y="110" width="440" height="400" rx="28" fill="#F4FAF9" opacity="1" /><text x="740" y="168" font-family="IBM Plex Sans" font-size="26" font-weight="700" fill="#0E4F57" text-anchor="start" letter-spacing="0" opacity="1">Növbə götür</text><rect x="740" y="196" width="360" height="54" rx="14" fill="#FFFFFF" opacity="1" stroke="#D6E7E5" stroke-width="2"/><text x="760" y="230" font-family="IBM Plex Sans" font-size="17" font-weight="400" fill="#0E4F57" text-anchor="start" letter-spacing="0" opacity="0.55">Ad, soyad</text><rect x="740" y="266" width="360" height="54" rx="14" fill="#FFFFFF" opacity="1" stroke="#D6E7E5" stroke-width="2"/><text x="760" y="300" font-family="IBM Plex Sans" font-size="17" font-weight="400" fill="#0E4F57" text-anchor="start" letter-spacing="0" opacity="0.55">Telefon</text><rect x="740" y="336" width="360" height="54" rx="14" fill="#FFFFFF" opacity="1" stroke="#D6E7E5" stroke-width="2"/><text x="760" y="370" font-family="IBM Plex Sans" font-size="17" font-weight="400" fill="#0E4F57" text-anchor="start" letter-spacing="0" opacity="0.55">Tarix və saat</text><rect x="740" y="416" width="360" height="58" rx="29" fill="#1FA9A0" opacity="1" /><text x="920" y="453" font-family="IBM Plex Sans" font-size="19" font-weight="700" fill="#fff" text-anchor="middle" letter-spacing="0" opacity="1">Təsdiqlə</text><rect x="60" y="540" width="190" height="170" rx="20" fill="#EAF6F5" opacity="1" /><circle cx="155" cy="590" r="30" fill="#C6DEDB"/><text x="155" y="650" font-family="IBM Plex Sans" font-size="16" font-weight="700" fill="#0E4F57" text-anchor="middle" letter-spacing="0" opacity="1">Dr. N. Əliyeva</text><text x="155" y="676" font-family="IBM Plex Sans" font-size="14" font-weight="400" fill="#0E4F57" text-anchor="middle" letter-spacing="0" opacity="0.6">Ortodont</text><rect x="270" y="540" width="190" height="170" rx="20" fill="#EAF6F5" opacity="1" /><circle cx="365" cy="590" r="30" fill="#C6DEDB"/><text x="365" y="650" font-family="IBM Plex Sans" font-size="16" font-weight="700" fill="#0E4F57" text-anchor="middle" letter-spacing="0" opacity="1">Dr. R. Həsənov</text><text x="365" y="676" font-family="IBM Plex Sans" font-size="14" font-weight="400" fill="#0E4F57" text-anchor="middle" letter-spacing="0" opacity="0.6">İmplantoloq</text><rect x="480" y="540" width="190" height="170" rx="20" fill="#EAF6F5" opacity="1" /><circle cx="575" cy="590" r="30" fill="#C6DEDB"/><text x="575" y="650" font-family="IBM Plex Sans" font-size="16" font-weight="700" fill="#0E4F57" text-anchor="middle" letter-spacing="0" opacity="1">Dr. S. Məmmədli</text><text x="575" y="676" font-family="IBM Plex Sans" font-size="14" font-weight="400" fill="#0E4F57" text-anchor="middle" letter-spacing="0" opacity="0.6">Terapevt</text></g></g></g><g transform="rotate(5 730.0 661.2)"><ellipse cx="730.0" cy="842.4" rx="260.0" ry="26" fill="#000" opacity=".55" filter="url(#shadow)"/><rect x="470" y="500" width="520" height="322.4" rx="18" fill="#E9E9EC" opacity="1" /><circle cx="492" cy="520" r="6" fill="#FF5F57"/><circle cx="512" cy="520" r="6" fill="#FEBC2E"/><circle cx="532" cy="520" r="6" fill="#28C840"/><clipPath id="w470"><rect x="470" y="540" width="520" height="282.4" rx="0"/></clipPath><g clip-path="url(#w470)"><g transform="translate(470 540) scale(0.43333333333333335)"><rect x="0" y="0" width="1200" height="750" rx="0" fill="#F4F4F6" opacity="1" /><text x="60" y="58" font-family="Space Grotesk" font-size="30" font-weight="800" fill="#0E0E12" text-anchor="start" letter-spacing="0" opacity="1">NÖQTƏ</text><text x="430" y="56" font-family="Space Grotesk" font-size="19" font-weight="500" fill="#0E0E12" text-anchor="start" letter-spacing="0" opacity="0.75">Yeni</text><text x="560" y="56" font-family="Space Grotesk" font-size="19" font-weight="500" fill="#0E0E12" text-anchor="start" letter-spacing="0" opacity="0.75">Kişi</text><text x="690" y="56" font-family="Space Grotesk" font-size="19" font-weight="500" fill="#0E0E12" text-anchor="start" letter-spacing="0" opacity="0.75">Qadın</text><text x="820" y="56" font-family="Space Grotesk" font-size="19" font-weight="500" fill="#0E0E12" text-anchor="start" letter-spacing="0" opacity="0.75">Endirim</text><rect x="1000" y="30" width="140" height="46" rx="23" fill="#0E0E12" opacity="1" /><text x="1070" y="60" font-family="Space Grotesk" font-size="17" font-weight="700" fill="#F5E11F" text-anchor="middle" letter-spacing="0" opacity="1">Səbət · 2</text><rect x="60" y="110" width="1080" height="300" rx="28" fill="#0E0E12" opacity="1" /><text x="100" y="200" font-family="Space Grotesk" font-size="84" font-weight="700" fill="#F5E11F" text-anchor="start" letter-spacing="0" opacity="1">YENİ</text><text x="100" y="290" font-family="Space Grotesk" font-size="84" font-weight="700" fill="#F4F4F6" text-anchor="start" letter-spacing="0" opacity="1">KOLLEKSİYA</text><text x="100" y="350" font-family="Manrope" font-size="20" font-weight="500" fill="#F4F4F6" text-anchor="start" letter-spacing="0" opacity="0.7">Payız 26 · Pulsuz çatdırılma</text><rect x="760" y="150" width="340" height="220" rx="20" fill="#26262F" opacity="1" /><circle cx="930" cy="260" r="80" fill="#FF3D78"/><circle cx="1000" cy="200" r="46" fill="#F5E11F"/><rect x="60" y="440" width="250" height="280" rx="20" fill="#FFFFFF" opacity="1" /><rect x="78" y="458" width="214" height="160" rx="14" fill="#6C63FF" opacity="1" /><text x="78" y="660" font-family="Manrope" font-size="18" font-weight="600" fill="#0E0E12" text-anchor="start" letter-spacing="0" opacity="1">Oversize sviter</text><rect x="78" y="678" width="74" height="30" rx="8" fill="#F5E11F" opacity="1" /><text x="115" y="699" font-family="Space Grotesk" font-size="16" font-weight="800" fill="#0E0E12" text-anchor="middle" letter-spacing="0" opacity="1">49 ₼</text><rect x="335" y="440" width="250" height="280" rx="20" fill="#FFFFFF" opacity="1" /><rect x="353" y="458" width="214" height="160" rx="14" fill="#FF9F43" opacity="1" /><rect x="485" y="470" width="70" height="30" rx="15" fill="#FF3D78" opacity="1" /><text x="520" y="491" font-family="Space Grotesk" font-size="14" font-weight="700" fill="#fff" text-anchor="middle" letter-spacing="0" opacity="1">YENİ</text><text x="353" y="660" font-family="Manrope" font-size="18" font-weight="600" fill="#0E0E12" text-anchor="start" letter-spacing="0" opacity="1">Kətan köynək</text><rect x="353" y="678" width="74" height="30" rx="8" fill="#F5E11F" opacity="1" /><text x="390" y="699" font-family="Space Grotesk" font-size="16" font-weight="800" fill="#0E0E12" text-anchor="middle" letter-spacing="0" opacity="1">35 ₼</text><rect x="610" y="440" width="250" height="280" rx="20" fill="#FFFFFF" opacity="1" /><rect x="628" y="458" width="214" height="160" rx="14" fill="#1FA9A0" opacity="1" /><text x="628" y="660" font-family="Manrope" font-size="18" font-weight="600" fill="#0E0E12" text-anchor="start" letter-spacing="0" opacity="1">Yun palto</text><rect x="628" y="678" width="74" height="30" rx="8" fill="#F5E11F" opacity="1" /><text x="665" y="699" font-family="Space Grotesk" font-size="16" font-weight="800" fill="#0E0E12" text-anchor="middle" letter-spacing="0" opacity="1">129 ₼</text><rect x="885" y="440" width="250" height="280" rx="20" fill="#FFFFFF" opacity="1" /><rect x="903" y="458" width="214" height="160" rx="14" fill="#FF3D78" opacity="1" /><text x="903" y="660" font-family="Manrope" font-size="18" font-weight="600" fill="#0E0E12" text-anchor="start" letter-spacing="0" opacity="1">Klassik jins</text><rect x="903" y="678" width="74" height="30" rx="8" fill="#F5E11F" opacity="1" /><text x="940" y="699" font-family="Space Grotesk" font-size="16" font-weight="800" fill="#0E0E12" text-anchor="middle" letter-spacing="0" opacity="1">59 ₼</text></g></g></g><g transform="rotate(-1 540.0 767.4)"><ellipse cx="540.0" cy="954.8" rx="270.0" ry="26" fill="#000" opacity=".55" filter="url(#shadow)"/><rect x="270" y="600" width="540" height="334.8" rx="18" fill="#EFE6D8" opacity="1" /><circle cx="292" cy="620" r="6" fill="#FF5F57"/><circle cx="312" cy="620" r="6" fill="#FEBC2E"/><circle cx="332" cy="620" r="6" fill="#28C840"/><clipPath id="w270"><rect x="270" y="640" width="540" height="294.8" rx="0"/></clipPath><g clip-path="url(#w270)"><g transform="translate(270 640) scale(0.45)"><rect x="0" y="0" width="1200" height="750" rx="0" fill="#FBF5EC" opacity="1" /><text x="60" y="58" font-family="Noto Serif" font-size="30" font-weight="800" fill="#2B241C" text-anchor="start" letter-spacing="0" opacity="1">Dəm.</text><text x="430" y="56" font-family="IBM Plex Sans" font-size="19" font-weight="500" fill="#2B241C" text-anchor="start" letter-spacing="0" opacity="0.75">Menyu</text><text x="560" y="56" font-family="IBM Plex Sans" font-size="19" font-weight="500" fill="#2B241C" text-anchor="start" letter-spacing="0" opacity="0.75">Haqqımızda</text><text x="690" y="56" font-family="IBM Plex Sans" font-size="19" font-weight="500" fill="#2B241C" text-anchor="start" letter-spacing="0" opacity="0.75">Ünvan</text><text x="820" y="56" font-family="IBM Plex Sans" font-size="19" font-weight="500" fill="#2B241C" text-anchor="start" letter-spacing="0" opacity="0.75">Rezerv</text><rect x="1000" y="30" width="140" height="46" rx="23" fill="#2B241C" opacity="1" /><text x="1070" y="60" font-family="IBM Plex Sans" font-size="17" font-weight="700" fill="#E8A33D" text-anchor="middle" letter-spacing="0" opacity="1">Stol sifarişi</text><text x="60" y="220" font-family="Noto Serif" font-size="74" font-weight="700" fill="#2B241C" text-anchor="start" letter-spacing="0" opacity="1">Səhər burada</text><text x="60" y="300" font-family="Noto Serif" font-size="74" font-weight="700" fill="#E8A33D" text-anchor="start" letter-spacing="0" opacity="1">başlayır.</text><text x="60" y="356" font-family="IBM Plex Sans" font-size="20" font-weight="400" fill="#2B241C" text-anchor="start" letter-spacing="0" opacity="0.7">Təzə dəmlənmiş qəhvə, ev peçenyesi və pəncərə önündə</text><text x="60" y="386" font-family="IBM Plex Sans" font-size="20" font-weight="400" fill="#2B241C" text-anchor="start" letter-spacing="0" opacity="0.7">sakit bir səhər. Hər gün 08:00–22:00.</text><rect x="60" y="424" width="170" height="56" rx="28" fill="#2B241C" opacity="1" /><text x="145" y="460" font-family="IBM Plex Sans" font-size="20" font-weight="700" fill="#F6EFE4" text-anchor="middle" letter-spacing="0" opacity="1">Menyu</text><rect x="246" y="424" width="200" height="56" rx="28" fill="none" opacity="1" stroke="#2B241C" stroke-width="2"/><text x="346" y="460" font-family="IBM Plex Sans" font-size="20" font-weight="600" fill="#2B241C" text-anchor="middle" letter-spacing="0" opacity="1">Zəng et</text><defs><radialGradient id="cup" cx=".4" cy=".35"><stop offset="0" stop-color="#F3C976"/><stop offset="1" stop-color="#8A4B1E"/></radialGradient></defs><rect x="660" y="120" width="480" height="380" rx="28" fill="url(#cup)" opacity="1" /><ellipse cx="900" cy="418" rx="150" ry="22" fill="#3A2416" opacity=".55"/><path d="M810 250 h180 l-18 150 h-144z" fill="#F6EFE4"/><path d="M990 268 q62 8 52 62 q-8 40 -62 40" fill="none" stroke="#F6EFE4" stroke-width="18" stroke-linecap="round"/><ellipse cx="900" cy="250" rx="90" ry="20" fill="#5A2E14"/><ellipse cx="900" cy="250" rx="72" ry="14" fill="#8A4B1E"/><path d="M866 216 c-14 -22 14 -34 0 -56 c-12 -18 10 -30 4 -48" fill="none" stroke="#F6EFE4" stroke-width="6" stroke-linecap="round" opacity=".55"/><path d="M900 216 c-14 -22 14 -34 0 -56 c-12 -18 10 -30 4 -48" fill="none" stroke="#F6EFE4" stroke-width="6" stroke-linecap="round" opacity=".55"/><path d="M934 216 c-14 -22 14 -34 0 -56 c-12 -18 10 -30 4 -48" fill="none" stroke="#F6EFE4" stroke-width="6" stroke-linecap="round" opacity=".55"/><rect x="60" y="560" width="250" height="150" rx="18" fill="#FFFFFF" opacity="1" /><rect x="80" y="580" width="210" height="60" rx="12" fill="#E8A33D" opacity="1" /><text x="80" y="676" font-family="IBM Plex Sans" font-size="19" font-weight="600" fill="#2B241C" text-anchor="start" letter-spacing="0" opacity="1">Espresso</text><text x="290" y="676" font-family="IBM Plex Sans" font-size="19" font-weight="700" fill="#E8A33D" text-anchor="end" letter-spacing="0" opacity="1">3 ₼</text><rect x="335" y="560" width="250" height="150" rx="18" fill="#FFFFFF" opacity="1" /><rect x="355" y="580" width="210" height="60" rx="12" fill="#C97A2B" opacity="1" /><text x="355" y="676" font-family="IBM Plex Sans" font-size="19" font-weight="600" fill="#2B241C" text-anchor="start" letter-spacing="0" opacity="1">Flat white</text><text x="565" y="676" font-family="IBM Plex Sans" font-size="19" font-weight="700" fill="#E8A33D" text-anchor="end" letter-spacing="0" opacity="1">5 ₼</text><rect x="610" y="560" width="250" height="150" rx="18" fill="#FFFFFF" opacity="1" /><rect x="630" y="580" width="210" height="60" rx="12" fill="#F0D3A4" opacity="1" /><text x="630" y="676" font-family="IBM Plex Sans" font-size="19" font-weight="600" fill="#2B241C" text-anchor="start" letter-spacing="0" opacity="1">Çizkeyk</text><text x="840" y="676" font-family="IBM Plex Sans" font-size="19" font-weight="700" fill="#E8A33D" text-anchor="end" letter-spacing="0" opacity="1">7 ₼</text><rect x="885" y="560" width="250" height="150" rx="18" fill="#FFFFFF" opacity="1" /><rect x="905" y="580" width="210" height="60" rx="12" fill="#8A4B1E" opacity="1" /><text x="905" y="676" font-family="IBM Plex Sans" font-size="19" font-weight="600" fill="#2B241C" text-anchor="start" letter-spacing="0" opacity="1">Səhər seti</text><text x="1115" y="676" font-family="IBM Plex Sans" font-size="19" font-weight="700" fill="#E8A33D" text-anchor="end" letter-spacing="0" opacity="1">12 ₼</text></g></g></g><text x="1000" y="112" font-family="Inter" font-size="22" font-weight="600" fill="#edecea" text-anchor="end" letter-spacing="0" opacity="0.7">@hastudio.az   ·   1 / 5</text></svg>