<svg xmlns="http://www.w3.org/2000/svg" width="1080" height="1080" viewBox="0 0 1080 1080">
<defs>
  <filter id="shadow" x="-30%" y="-30%" width="160%" height="180%">
    <feGaussianBlur stdDeviation="28"/>
  </filter>
  <filter id="soft" x="-20%" y="-20%" width="140%" height="140%">
    <feGaussianBlur stdDeviation="10"/>
  </filter>
  <filter id="grain">
    <feTurbulence type="fractalNoise" baseFrequency="0.9" numOctaves="2" stitchTiles="stitch"/>
    <feColorMatrix type="saturate" values="0"/>
  </filter>
  <linearGradient id="gloss" x1="0" y1="0" x2="1" y2="1">
    <stop offset="0" stop-color="#fff" stop-opacity=".18"/>
    <stop offset=".45" stop-color="#fff" stop-opacity="0"/>
  </linearGradient>
</defs><defs><radialGradient id="bg2" cx=".2" cy=".15" r="1.1"><stop offset="0" stop-color="#3B2A1B"/><stop offset="0.55" stop-color="#1E140C"/><stop offset="1" stop-color="#120B06"/></radialGradient></defs><rect x="0" y="0" width="1080" height="1080" rx="0" fill="url(#bg2)" opacity="1" /><circle cx="920" cy="140" r="260" fill="#E8A33D" opacity=".16" filter="url(#shadow)"/><rect width="1080" height="1080" filter="url(#grain)" opacity="0.06"/><ellipse cx="540.0" cy="801.5" rx="436.8" ry="38" fill="#000" opacity=".55" filter="url(#shadow)"/><rect x="120" y="226" width="840" height="535.5" rx="22" fill="#0d0d10" opacity="1" stroke="#3a3a42" stroke-width="2"/><circle cx="540.0" cy="234.0" r="3" fill="#2a2a30"/><clipPath id="scr120226"><rect x="134" y="240" width="812" height="507.5" rx="8"/></clipPath><g clip-path="url(#scr120226)"><g transform="translate(134 240) scale(0.6766666666666666)"><rect x="0" y="0" width="1200" height="750" rx="0" fill="#FBF5EC" opacity="1" /><text x="60" y="58" font-family="Noto Serif" font-size="30" font-weight="800" fill="#2B241C" text-anchor="start" letter-spacing="0" opacity="1">Dəm.</text><text x="430" y="56" font-family="IBM Plex Sans" font-size="19" font-weight="500" fill="#2B241C" text-anchor="start" letter-spacing="0" opacity="0.75">Menyu</text><text x="560" y="56" font-family="IBM Plex Sans" font-size="19" font-weight="500" fill="#2B241C" text-anchor="start" letter-spacing="0" opacity="0.75">Haqqımızda</text><text x="690" y="56" font-family="IBM Plex Sans" font-size="19" font-weight="500" fill="#2B241C" text-anchor="start" letter-spacing="0" opacity="0.75">Ünvan</text><text x="820" y="56" font-family="IBM Plex Sans" font-size="19" font-weight="500" fill="#2B241C" text-anchor="start" letter-spacing="0" opacity="0.75">Rezerv</text><rect x="1000" y="30" width="140" height="46" rx="23" fill="#2B241C" opacity="1" /><text x="1070" y="60" font-family="IBM Plex Sans" font-size="17" font-weight="700" fill="#E8A33D" text-anchor="middle" letter-spacing="0" opacity="1">Stol sifarişi</text><text x="60" y="220" font-family="Noto Serif" font-size="74" font-weight="700" fill="#2B241C" text-anchor="start" letter-spacing="0" opacity="1">Səhər burada</text><text x="60" y="300" font-family="Noto Serif" font-size="74" font-weight="700" fill="#E8A33D" text-anchor="start" letter-spacing="0" opacity="1">başlayır.</text><text x="60" y="356" font-family="IBM Plex Sans" font-size="20" font-weight="400" fill="#2B241C" text-anchor="start" letter-spacing="0" opacity="0.7">Təzə dəmlənmiş qəhvə, ev peçenyesi və pəncərə önündə</text><text x="60" y="386" font-family="IBM Plex Sans" font-size="20" font-weight="400" fill="#2B241C" text-anchor="start" letter-spacing="0" opacity="0.7">sakit bir səhər. Hər gün 08:00–22:00.</text><rect x="60" y="424" width="170" height="56" rx="28" fill="#2B241C" opacity="1" /><text x="145" y="460" font-family="IBM Plex Sans" font-size="20" font-weight="700" fill="#F6EFE4" text-anchor="middle" letter-spacing="0" opacity="1">Menyu</text><rect x="246" y="424" width="200" height="56" rx="28" fill="none" opacity="1" stroke="#2B241C" stroke-width="2"/><text x="346" y="460" font-family="IBM Plex Sans" font-size="20" font-weight="600" fill="#2B241C" text-anchor="middle" letter-spacing="0" opacity="1">Zəng et</text><defs><radialGradient id="cup" cx=".4" cy=".35"><stop offset="0" stop-color="#F3C976"/><stop offset="1" stop-color="#8A4B1E"/></radialGradient></defs><rect x="660" y="120" width="480" height="380" rx="28" fill="url(#cup)" opacity="1" /><ellipse cx="900" cy="418" rx="150" ry="22" fill="#3A2416" opacity=".55"/><path d="M810 250 h180 l-18 150 h-144z" fill="#F6EFE4"/><path d="M990 268 q62 8 52 62 q-8 40 -62 40" fill="none" stroke="#F6EFE4" stroke-width="18" stroke-linecap="round"/><ellipse cx="900" cy="250" rx="90" ry="20" fill="#5A2E14"/><ellipse cx="900" cy="250" rx="72" ry="14" fill="#8A4B1E"/><path d="M866 216 c-14 -22 14 -34 0 -56 c-12 -18 10 -30 4 -48" fill="none" stroke="#F6EFE4" stroke-width="6" stroke-linecap="round" opacity=".55"/><path d="M900 216 c-14 -22 14 -34 0 -56 c-12 -18 10 -30 4 -48" fill="none" stroke="#F6EFE4" stroke-width="6" stroke-linecap="round" opacity=".55"/><path d="M934 216 c-14 -22 14 -34 0 -56 c-12 -18 10 -30 4 -48" fill="none" stroke="#F6EFE4" stroke-width="6" stroke-linecap="round" opacity=".55"/><rect x="60" y="560" width="250" height="150" rx="18" fill="#FFFFFF" opacity="1" /><rect x="80" y="580" width="210" height="60" rx="12" fill="#E8A33D" opacity="1" /><text x="80" y="676" font-family="IBM Plex Sans" font-size="19" font-weight="600" fill="#2B241C" text-anchor="start" letter-spacing="0" opacity="1">Espresso</text><text x="290" y="676" font-family="IBM Plex Sans" font-size="19" font-weight="700" fill="#E8A33D" text-anchor="end" letter-spacing="0" opacity="1">3 ₼</text><rect x="335" y="560" width="250" height="150" rx="18" fill="#FFFFFF" opacity="1" /><rect x="355" y="580" width="210" height="60" rx="12" fill="#C97A2B" opacity="1" /><text x="355" y="676" font-family="IBM Plex Sans" font-size="19" font-weight="600" fill="#2B241C" text-anchor="start" letter-spacing="0" opacity="1">Flat white</text><text x="565" y="676" font-family="IBM Plex Sans" font-size="19" font-weight="700" fill="#E8A33D" text-anchor="end" letter-spacing="0" opacity="1">5 ₼</text><rect x="610" y="560" width="250" height="150" rx="18" fill="#FFFFFF" opacity="1" /><rect x="630" y="580" width="210" height="60" rx="12" fill="#F0D3A4" opacity="1" /><text x="630" y="676" font-family="IBM Plex Sans" font-size="19" font-weight="600" fill="#2B241C" text-anchor="start" letter-spacing="0" opacity="1">Çizkeyk</text><text x="840" y="676" font-family="IBM Plex Sans" font-size="19" font-weight="700" fill="#E8A33D" text-anchor="end" letter-spacing="0" opacity="1">7 ₼</text><rect x="885" y="560" width="250" height="150" rx="18" fill="#FFFFFF" opacity="1" /><rect x="905" y="580" width="210" height="60" rx="12" fill="#8A4B1E" opacity="1" /><text x="905" y="676" font-family="IBM Plex Sans" font-size="19" font-weight="600" fill="#2B241C" text-anchor="start" letter-spacing="0" opacity="1">Səhər seti</text><text x="1115" y="676" font-family="IBM Plex Sans" font-size="19" font-weight="700" fill="#E8A33D" text-anchor="end" letter-spacing="0" opacity="1">12 ₼</text></g></g><rect x="134" y="240" width="812" height="507.5" rx="8" fill="url(#gloss)" opacity="1" /><rect x="94" y="761.5" width="892" height="20" rx="6" fill="#1a1a1f" opacity="1" /><rect x="94" y="761.5" width="892" height="4" rx="2" fill="#3a3a42" opacity="1" /><rect x="470.0" y="761.5" width="140" height="8" rx="4" fill="#2a2a31" opacity="1" /><g transform="rotate(-7 865.0 777.5897435897436)"><ellipse cx="865.0" cy="1013.1794871794872" rx="104.50000000000001" ry="26" fill="#000" opacity=".5" filter="url(#shadow)"/><rect x="770" y="560" width="190" height="435.1794871794872" rx="30.400000000000002" fill="#0d0d10" opacity="1" stroke="#3a3a42" stroke-width="2"/><clipPath id="ph770560"><rect x="782" y="572" width="166" height="411.1794871794872" rx="22.8"/></clipPath><g clip-path="url(#ph770560)"><g transform="translate(782 572) scale(0.4256410256410256)"><rect x="0" y="0" width="390" height="844" rx="0" fill="#FBF5EC" opacity="1" /><text x="30" y="90" font-family="IBM Plex Sans" font-size="30" font-weight="700" fill="#2B241C" text-anchor="start" letter-spacing="0" opacity="1">≡</text><rect x="300" y="66" width="60" height="30" rx="15" fill="#E8A33D" opacity="1" /><rect x="30" y="130" width="330" height="260" rx="24" fill="#E8A33D" opacity="1" /><text x="30" y="470" font-family="Noto Serif" font-size="40" font-weight="800" fill="#2B241C" text-anchor="start" letter-spacing="0" opacity="1">Səhər</text><text x="30" y="520" font-family="Noto Serif" font-size="40" font-weight="800" fill="#E8A33D" text-anchor="start" letter-spacing="0" opacity="1">burada.</text><rect x="30" y="580" width="330" height="60" rx="30" fill="#2B241C" opacity="1" /><text x="195" y="619" font-family="IBM Plex Sans" font-size="20" font-weight="700" fill="#FBF5EC" text-anchor="middle" letter-spacing="0" opacity="1">Menyu</text><rect x="30" y="660" width="330" height="60" rx="30" fill="none" opacity="1" stroke="#2B241C" stroke-opacity=".3" stroke-width="2"/><text x="195" y="699" font-family="IBM Plex Sans" font-size="20" font-weight="600" fill="#2B241C" text-anchor="middle" letter-spacing="0" opacity="1">WhatsApp</text></g></g><rect x="830.8" y="582" width="68.39999999999999" height="22" rx="11" fill="#0d0d10" opacity="1" /><rect x="782" y="572" width="166" height="411.1794871794872" rx="22.8" fill="url(#gloss)" opacity="1" /></g><text x="80" y="112" font-family="IBM Plex Sans" font-size="22" font-weight="700" fill="#E8A33D" text-anchor="start" letter-spacing="6" opacity="1">01 — KAFE</text><text x="1000" y="112" font-family="IBM Plex Sans" font-size="22" font-weight="600" fill="#F6EFE4" text-anchor="end" letter-spacing="0" opacity="0.7">@hastudio.az   ·   2 / 5</text><text x="80" y="992" font-family="IBM Plex Sans" font-size="42" font-weight="700" fill="#F6EFE4" text-anchor="start" letter-spacing="0" opacity="1">Menyu birinci, mətn sonra.</text></svg>